<svg width="34" height="34" viewBox="0 0 34 34" fill="none" xmlns="http://www.w3.org/2000/svg">
<path fill-rule="evenodd" clip-rule="evenodd" d="M23.7998 33.6666H10.1831C4.2998 33.6666 0.33313 29.8816 0.33313 24.2333V9.78331C0.33313 4.13331 4.2998 0.333313 10.1831 0.333313H23.7998C29.6998 0.333313 33.6665 4.13331 33.6665 9.78331V24.2333C33.6665 29.8816 29.6998 33.6666 23.7998 33.6666ZM20.7831 15.75H10.1998C9.4998 15.75 8.9498 16.3166 8.9498 17C8.9498 17.7 9.4998 18.25 10.1998 18.25H20.7831L16.6498 22.3666C16.4165 22.6 16.2831 22.9333 16.2831 23.25C16.2831 23.565 16.4165 23.8833 16.6498 24.1333C17.1331 24.6166 17.9331 24.6166 18.4165 24.1333L24.6998 17.8833C25.1665 17.4166 25.1665 16.5833 24.6998 16.1166L18.4165 9.86665C17.9331 9.38331 17.1331 9.38331 16.6498 9.86665C16.1665 10.3666 16.1665 11.15 16.6498 11.65L20.7831 15.75Z" fill="#BBBBBB"/>
</svg>
