<svg width="24" height="24" viewBox="0 0 24 24" fill="none" xmlns="http://www.w3.org/2000/svg">
<mask id="mask0_1_6127" style="mask-type:alpha" maskUnits="userSpaceOnUse" x="0" y="0" width="24" height="24">
<path d="M24 0H0V24H24V0Z" fill="white"/>
</mask>
<g mask="url(#mask0_1_6127)">
<path d="M0.543997 18.09C0.233997 16.74 0.0339966 14.52 0.0339966 12C0.0339966 9.49 0.233997 7.26 0.543997 5.91C1.114 3.2 3.224 1.09 5.924 0.52C7.274 0.2 9.494 0 12.004 0C14.504 0 16.724 0.2 18.074 0.52C20.774 1.09 22.884 3.2 23.454 5.91C23.764 7.26 23.964 9.49 23.964 12C23.964 14.52 23.764 16.74 23.454 18.09C22.884 20.8 20.774 22.91 18.074 23.48C16.724 23.8 14.504 24 12.004 24C9.494 24 7.274 23.8 5.924 23.48C3.224 22.91 1.114 20.8 0.553997 18.09H0.543997ZM16.509 11.604C15.499 8.614 14.439 6.184 13.959 5.714C13.849 5.594 13.709 5.504 13.559 5.454H13.549C13.239 5.344 12.659 5.274 11.999 5.274C11.339 5.274 10.759 5.344 10.449 5.454H10.439C10.289 5.504 10.149 5.594 10.039 5.714C9.559 6.184 8.499 8.614 7.489 11.604C6.599 14.224 6.009 16.514 5.939 17.494C5.929 17.524 5.929 17.554 5.929 17.594C5.929 17.904 6.129 18.194 6.419 18.304H6.429C6.849 18.454 7.589 18.584 8.529 18.684C8.569 18.684 8.619 18.684 8.659 18.694C8.859 18.714 9.049 18.594 9.129 18.414C9.359 17.864 9.839 17.474 10.419 17.354C10.769 17.264 11.349 17.214 11.999 17.214C12.649 17.214 13.229 17.264 13.579 17.354C14.159 17.474 14.649 17.874 14.879 18.424C14.949 18.604 15.129 18.714 15.329 18.694L15.469 18.684C16.409 18.584 17.149 18.454 17.579 18.304C17.879 18.194 18.069 17.904 18.069 17.594C18.069 17.554 18.069 17.524 18.069 17.494C17.989 16.514 17.399 14.214 16.509 11.604Z" fill="#527AE0"/>
</g>
</svg>
